#N canvas 130 166 773 576 10;
#X floatatom 335 246 5 0 0 0 - - -;
#X floatatom 335 285 5 0 0 0 - - -;
#X floatatom 362 327 5 0 0 0 - - -;
#X floatatom 333 372 5 0 0 0 - - -;
#X obj 384 184 delay 4;
#X obj 391 214 delay 3;
#X obj 395 239 delay 2;
#X obj 213 211 bitsample;
#X obj 225 257 bitsample;
#X obj 239 302 bitsample;
#X obj 268 344 bitsample;
#X obj 305 127 inlet;
#X obj 204 133 inlet;
#X obj 163 420 outlet;
#X obj 214 421 outlet;
#X obj 267 422 outlet;
#X obj 321 423 outlet;
#X obj 533 144 bang;
#X msg 533 181 1;
#X obj 309 156 t b;
#X obj 405 274 bng 15 250 50 0 empty empty empty 17 7 0 10 -262144
-1 -1;
#X obj 477 457 sel 1;
#X obj 267 132 bng 15 250 50 0 empty empty empty 17 7 0 10 -262144
-1 -1;
#X floatatom 565 439 5 0 0 0 - - -;
#X obj 498 414 expr ($f2 + $f3 + $f4 + $f5) == 0;
#X obj 480 480 t b;
#X msg 475 513 1;
#X obj 571 353 loadbang;
#X obj 587 301 bng 15 250 50 0 empty empty empty 17 7 0 10 -262144
-1 -1;
#X obj 568 510 bng 15 250 50 0 empty empty empty 17 7 0 10 -262144
-1 -1;
#X text 229 458 bit values;
#X text 186 100 clock bang;
#X text 295 102 data input;
#X text 549 471 prevent all-zero condition;
#X obj 12 8 4bitshift;
#X obj 495 331 r \$0-nozero;
#X obj 473 535 s \$0-init;
#X obj 535 223 s \$0-init;
#X obj 140 184 r \$0-init;
#X obj 250 175 r \$0-init;
#X obj 452 208 s \$0-nozero;
#X text 12 34 4-bit shift register. Kind of like a queue. On each clock
input \, shifts the data in the register one step and samples the data
inlet into the top location. Outputs the value of each position into
the outlets.;
#X text 14 507 Trevor Wilson;
#X text 16 524 wilsontr@gmail.com;
#X text 17 543 2014;
#X connect 0 0 24 1;
#X connect 1 0 24 2;
#X connect 2 0 24 3;
#X connect 3 0 24 4;
#X connect 4 0 7 1;
#X connect 4 0 40 0;
#X connect 5 0 8 1;
#X connect 6 0 9 1;
#X connect 7 0 8 0;
#X connect 7 0 13 0;
#X connect 7 0 0 0;
#X connect 8 0 1 0;
#X connect 8 0 9 0;
#X connect 8 0 14 0;
#X connect 9 0 2 0;
#X connect 9 0 10 0;
#X connect 9 0 15 0;
#X connect 10 0 3 0;
#X connect 10 0 16 0;
#X connect 11 0 19 0;
#X connect 12 0 7 0;
#X connect 17 0 18 0;
#X connect 17 0 19 0;
#X connect 18 0 37 0;
#X connect 19 0 4 0;
#X connect 19 0 5 0;
#X connect 19 0 6 0;
#X connect 19 0 10 1;
#X connect 20 0 8 1;
#X connect 20 0 10 1;
#X connect 21 0 25 0;
#X connect 22 0 19 0;
#X connect 23 0 21 0;
#X connect 24 0 23 0;
#X connect 25 0 26 0;
#X connect 25 0 29 0;
#X connect 26 0 36 0;
#X connect 27 0 24 0;
#X connect 28 0 27 0;
#X connect 35 0 24 0;
#X connect 38 0 7 0;
#X connect 39 0 7 1;
