#N canvas 588 136 718 496 10;
#X obj 97 199 *~ 1;
#X obj 142 290 *~ 0.4;
#X obj 152 351 outlet~;
#X obj 197 87 inlet~;
#X obj 170 198 *~ 0.5;
#X obj 318 196 *~ 0.2;
#X obj 475 153 harmonic~ 6;
#X obj 455 193 *~ 0.05;
#X obj 60 149 harmonic~ 1;
#X obj 398 152 harmonic~ 5;
#X obj 324 154 harmonic~ 4;
#X obj 251 153 harmonic~ 3;
#X obj 159 155 harmonic~ 2;
#X obj 563 152 harmonic~ 7;
#X obj 250 197 *~ 0.2;
#X obj 378 193 *~ 0.05;
#X obj 543 192 *~ 0.04;
#X obj 12 13 harmonicosc~;
#X text 96 14 comment;
#X connect 0 0 1 0;
#X connect 1 0 2 0;
#X connect 3 0 6 0;
#X connect 3 0 8 0;
#X connect 3 0 9 0;
#X connect 3 0 10 0;
#X connect 3 0 11 0;
#X connect 3 0 12 0;
#X connect 3 0 13 0;
#X connect 4 0 1 0;
#X connect 6 0 7 0;
#X connect 8 0 0 0;
#X connect 9 0 15 0;
#X connect 10 0 5 0;
#X connect 11 0 14 0;
#X connect 12 0 4 0;
#X connect 13 0 16 0;
#X connect 14 0 1 0;
#X connect 15 0 1 0;
#X connect 16 0 1 0;
