#N canvas 30 166 710 507 10;
#X text 13 13 qrv - quantized random voltages;
#X obj 443 358 qrv;
#X floatatom 426 464 5 0 0 0 - - -;
#X floatatom 634 459 5 0 0 0 - - -;
#X obj 473 450 bng 15 250 50 0 empty empty empty 17 7 0 10 -262144
-1 -1;
#X obj 427 267 bng 15 250 50 0 empty empty empty 17 7 0 10 -262144
-1 -1;
#X obj 424 296 metro 500;
#X text 410 424 n+1;
#X text 625 424 2^n;
#X msg 500 279 0.5;
#X msg 495 253 0.1;
#X msg 506 304 0.9;
#X msg 550 252 0.2;
#X msg 561 281 0.6;
#X msg 564 307 0.85;
#X floatatom 614 250 5 0 0 0 - - -;
#X text 21 250 Quant knob (0-16) controls the quantization of the voltages.
If Dist is set to 1 \, the n+1 output will have one of 1+1=2 different
values \, while the 2^n output will have one of 2^2 different values.
;
#X text 21 197 Chance knob (value of 0 to 1) controls whether new data
will be more likely to be an 0 (more CCW \, <0.5) or 1 (more CW \,
>0.5).;
#X text 21 157 Change knob controls how likely it is that new data
will be added to the register (value of 0 to 1).;
#X text 21 39 Based on random synth modules like the Buchla 266 Source
of Uncertainty \, Doepfer A-149-1 \, and Grant Richter's Noisering.
Contains an 8-bit shift register that receives data via a noise generator
and adds new bits depending on probability. The bits in the register
are converted to an 8-bit integer value and then quantized according
to the Dist setting. On each input bang \, the outputs send "voltages"
(values) between 0 and 1;
#X text 17 428 Trevor Wilson;
#X text 17 463 wilsontr@gmail.com;
#X text 18 446 2014;
#X connect 1 0 2 0;
#X connect 1 0 4 0;
#X connect 1 1 3 0;
#X connect 5 0 6 0;
#X connect 6 0 1 0;
#X connect 9 0 1 1;
#X connect 10 0 1 1;
#X connect 11 0 1 1;
#X connect 12 0 1 2;
#X connect 13 0 1 2;
#X connect 14 0 1 2;
#X connect 15 0 1 3;
