#N canvas 443 22 629 691 10;
#X obj 314 399 8bitshift;
#X obj 149 129 knob 32 32 0 1 0 0 empty empty chance 0 -8 1 10 -1 -4160
-4160 0 1;
#X obj 191 129 knob 32 32 0 1 0 0 empty empty change 0 -8 1 10 -1 -4160
-4160 0 1;
#X floatatom 262 383 5 0 0 0 - - -;
#X floatatom 260 299 5 0 0 0 - - -;
#X floatatom 397 425 5 0 0 0 - - -;
#X floatatom 427 332 5 0 0 0 - - -;
#X obj 365 362 bng 15 250 50 0 empty empty empty 17 7 0 10 -262144
-1 -1;
#X obj 398 425 s \$0-fdbck;
#X obj 306 268 r \$0-fdbck;
#X obj 299 332 myswitch;
#X floatatom 373 299 5 0 0 0 - - -;
#X obj 393 229 <;
#X floatatom 329 299 5 0 0 0 - - -;
#X obj 262 229 <;
#X obj 38 57 inlet;
#X obj 38 96 bng 15 250 50 0 empty empty empty 17 7 0 10 -262144 -1
-1;
#X obj 233 130 knob 32 32 0 16 0 0 empty empty quant 3 -8 1 10 -16662
-4160 -4160 0 1;
#X obj 82 371 + 1;
#X obj 206 464 expr pow(2 \, $f1);
#X floatatom 262 594 10 0 0 0 - - -;
#X floatatom 262 533 10 0 0 0 - - -;
#X floatatom 338 425 5 0 0 0 - - -;
#X obj 262 632 outlet;
#X obj 78 610 outlet;
#X floatatom 78 572 5 0 0 0 - - -;
#X text 104 100 quantized random voltages;
#X floatatom 109 191 5 0 0 0 - - -;
#X floatatom 144 199 5 0 0 0 - - -;
#X obj 316 39 loadbang;
#X obj 131 57 inlet;
#X obj 186 57 inlet;
#X obj 240 57 inlet;
#X text 15 617 n+1 values;
#X text 310 617 2^n values;
#X text 39 34 bang;
#X obj 384 66 noise~;
#X obj 20 492 quantize~;
#X obj 82 410 pack;
#X obj 47 533 snapshot~;
#X obj 38 133 s \$0-clock;
#X obj 105 499 r \$0-clock;
#X floatatom 262 191 5 0 0 0 - - -;
#X obj 176 533 quantize~;
#X obj 206 503 pack;
#X obj 176 572 snapshot~;
#X obj 383 89 +~ 1;
#X obj 385 116 *~ 0.5;
#X obj 386 147 snapshot~;
#X obj 445 92 r \$0-clock;
#X floatatom 440 195 5 0 0 0 - - -;
#X obj 249 424 / 255;
#X obj 114 461 sig~;
#X obj 172 472 sig~;
#X obj 533 536 qrv-help;
#X text 514 569 Trevor Wilson;
#X text 516 586 wilsontr@gmail.com;
#X text 516 604 2014;
#X connect 0 0 22 0;
#X connect 0 0 51 0;
#X connect 0 1 5 0;
#X connect 1 0 14 1;
#X connect 1 0 27 0;
#X connect 2 0 12 1;
#X connect 2 0 28 0;
#X connect 5 0 8 0;
#X connect 7 0 0 0;
#X connect 9 0 10 1;
#X connect 9 0 13 0;
#X connect 10 0 3 0;
#X connect 10 0 7 0;
#X connect 10 0 0 1;
#X connect 11 0 7 0;
#X connect 11 0 10 0;
#X connect 12 0 6 0;
#X connect 12 0 11 0;
#X connect 14 0 4 0;
#X connect 14 0 10 2;
#X connect 15 0 16 0;
#X connect 16 0 40 0;
#X connect 17 0 42 0;
#X connect 18 0 38 0;
#X connect 19 0 21 0;
#X connect 19 0 44 0;
#X connect 20 0 23 0;
#X connect 25 0 24 0;
#X connect 29 0 1 0;
#X connect 29 0 2 0;
#X connect 29 0 17 0;
#X connect 30 0 1 0;
#X connect 31 0 2 0;
#X connect 32 0 17 0;
#X connect 36 0 46 0;
#X connect 37 0 39 0;
#X connect 38 0 37 0;
#X connect 39 0 25 0;
#X connect 41 0 39 0;
#X connect 41 0 45 0;
#X connect 42 0 19 0;
#X connect 42 0 18 0;
#X connect 43 0 45 0;
#X connect 44 0 43 0;
#X connect 45 0 20 0;
#X connect 46 0 47 0;
#X connect 47 0 48 0;
#X connect 48 0 12 0;
#X connect 48 0 14 0;
#X connect 48 0 50 0;
#X connect 49 0 48 0;
#X connect 51 0 52 0;
#X connect 51 0 53 0;
#X connect 52 0 37 0;
#X connect 53 0 43 0;
#X coords 0 -1 1 1 170 70 2 100 100;
