#N canvas 829 82 831 813 12;
#X obj 74 29 inlet~;
#X obj 280 21 inlet~;
#X obj 96 135 phasor~;
#X obj 288 697 outlet~;
#X obj 281 62 +~ 1;
#X obj 281 98 /~ 2;
#X obj 297 146 *~ -1;
#X obj 295 183 +~ 1;
#X obj 174 282 *~;
#X obj 252 233 *~;
#X obj 227 431 min~;
#X obj 326 354 +~;
#X obj 259 274 *~ -1;
#X obj 457 561 *~;
#X obj 245 615 *~ 2;
#X obj 449 282 expr~ pow($v1*($v1-1) \, -1);
#X obj 239 650 +~ 1;
#X connect 0 0 2 0;
#X connect 1 0 4 0;
#X connect 2 0 8 0;
#X connect 2 0 9 0;
#X connect 4 0 5 0;
#X connect 5 0 8 1;
#X connect 5 0 6 0;
#X connect 5 0 15 0;
#X connect 6 0 7 0;
#X connect 7 0 9 1;
#X connect 7 0 11 1;
#X connect 8 0 10 0;
#X connect 9 0 12 0;
#X connect 10 0 13 0;
#X connect 11 0 10 1;
#X connect 12 0 11 0;
#X connect 13 0 14 0;
#X connect 14 0 16 0;
#X connect 15 0 13 1;
#X connect 16 0 3 0;
